<svg xmlns="http://www.w3.org/2000/svg" viewBox="0 0 64 64">
  <rect width="64" height="64" rx="14" fill="#ffffff"></rect>
  <g stroke="#1f4e79" stroke-width="4" stroke-linecap="round">
    <line x1="32" y1="14" x2="32" y2="3"></line>
    <line x1="47" y1="23" x2="57" y2="17"></line>
    <line x1="47" y1="41" x2="57" y2="47"></line>
    <line x1="32" y1="50" x2="32" y2="61"></line>
    <line x1="17" y1="41" x2="7" y2="47"></line>
    <line x1="17" y1="23" x2="7" y2="17"></line>
  </g>
  <g fill="#1f4e79">
    <circle cx="32" cy="3" r="3"></circle><circle cx="57" cy="17" r="3"></circle><circle cx="57" cy="47" r="3"></circle>
    <circle cx="32" cy="61" r="3"></circle><circle cx="7" cy="47" r="3"></circle><circle cx="7" cy="17" r="3"></circle>
  </g>
  <circle cx="32" cy="32" r="20" fill="none" stroke="#1f4e79" stroke-width="4"></circle>
  <polygon points="22,30 28,22 32,32" fill="#1f4e79"></polygon>
  <polygon points="28,22 36,22 32,32" fill="#3a6da0"></polygon>
  <polygon points="36,22 42,30 32,32" fill="#1f4e79"></polygon>
  <polygon points="22,30 32,32 27,40" fill="#3a6da0"></polygon>
  <polygon points="42,30 32,32 37,40" fill="#3a6da0"></polygon>
  <polygon points="27,32 37,32 32,42" fill="#0f2c49"></polygon>
  <circle cx="30" cy="35" r="1.3" fill="#ffffff"></circle><circle cx="34" cy="35" r="1.3" fill="#ffffff"></circle>
</svg>