<svg xmlns="http://www.w3.org/2000/svg" viewBox="0 0 64 64">
  <rect width="64" height="64" rx="14" fill="#ffffff"/>
  <line x1="32.0" y1="14.0" x2="32.0" y2="2.0" stroke="#1f4e79" stroke-width="4.2" stroke-linecap="round"/>
  <circle cx="32.0" cy="2.0" r="3.4" fill="#1f4e79"/>
  <line x1="47.6" y1="23.0" x2="58.0" y2="17.0" stroke="#1f4e79" stroke-width="4.2" stroke-linecap="round"/>
  <circle cx="58.0" cy="17.0" r="3.4" fill="#1f4e79"/>
  <line x1="47.6" y1="41.0" x2="58.0" y2="47.0" stroke="#1f4e79" stroke-width="4.2" stroke-linecap="round"/>
  <circle cx="58.0" cy="47.0" r="3.4" fill="#1f4e79"/>
  <line x1="32.0" y1="50.0" x2="32.0" y2="62.0" stroke="#1f4e79" stroke-width="4.2" stroke-linecap="round"/>
  <circle cx="32.0" cy="62.0" r="3.4" fill="#1f4e79"/>
  <line x1="16.4" y1="41.0" x2="6.0" y2="47.0" stroke="#1f4e79" stroke-width="4.2" stroke-linecap="round"/>
  <circle cx="6.0" cy="47.0" r="3.4" fill="#1f4e79"/>
  <line x1="16.4" y1="23.0" x2="6.0" y2="17.0" stroke="#1f4e79" stroke-width="4.2" stroke-linecap="round"/>
  <circle cx="6.0" cy="17.0" r="3.4" fill="#1f4e79"/>
  <circle cx="32" cy="32" r="20" fill="none" stroke="#1f4e79" stroke-width="4.2"/>
  <ellipse cx="24.74" cy="36.30" rx="2.20" ry="3.30" fill="#0f2c49" transform="rotate(28 24.74 36.30)"/>
  <ellipse cx="39.26" cy="36.30" rx="2.20" ry="3.30" fill="#0f2c49" transform="rotate(-28 39.26 36.30)"/>
  <circle cx="32.00" cy="24.20" r="4.40" fill="#1f4e79"/>
  <circle cx="36.40" cy="25.49" r="4.95" fill="#5b8cbf"/>
  <circle cx="39.40" cy="28.96" r="4.40" fill="#1f4e79"/>
  <circle cx="40.06" cy="33.50" r="4.95" fill="#1f4e79"/>
  <circle cx="38.15" cy="37.67" r="4.40" fill="#5b8cbf"/>
  <circle cx="34.29" cy="40.15" r="4.95" fill="#1f4e79"/>
  <circle cx="29.71" cy="40.15" r="4.40" fill="#1f4e79"/>
  <circle cx="25.85" cy="37.67" r="4.95" fill="#5b8cbf"/>
  <circle cx="23.94" cy="33.50" r="4.40" fill="#1f4e79"/>
  <circle cx="24.60" cy="28.96" r="4.95" fill="#1f4e79"/>
  <circle cx="27.60" cy="25.49" r="4.40" fill="#5b8cbf"/>
  <circle cx="32.00" cy="32.34" r="8.14" fill="#1f4e79"/>
  <ellipse cx="32.00" cy="35.64" rx="5.50" ry="5.06" fill="#0f2c49"/>
  <circle cx="32.00" cy="31.24" r="3.30" fill="#1f4e79"/>
  <circle cx="28.92" cy="32.56" r="2.31" fill="#5b8cbf"/>
  <circle cx="35.08" cy="32.56" r="2.31" fill="#1f4e79"/>
  <circle cx="29.80" cy="34.98" r="1.82" fill="#ffffff"/>
  <circle cx="29.80" cy="35.20" r="1.04" fill="#23303d"/>
  <circle cx="29.47" cy="34.65" r="0.39" fill="#ffffff"/>
  <circle cx="34.20" cy="34.98" r="1.82" fill="#ffffff"/>
  <circle cx="34.20" cy="35.20" r="1.04" fill="#23303d"/>
  <circle cx="33.87" cy="34.65" r="0.39" fill="#ffffff"/>
  <ellipse cx="32.00" cy="38.50" rx="1.10" ry="0.77" fill="#23303d"/>
</svg>
